<svg t="1567766326821" class="icon" viewBox="0 0 1024 1024" version="1.1" xmlns="http://www.w3.org/2000/svg" p-id="22514" width="200" height="200"><path d="M505.472 516.096a25.088 25.088 0 0 1-12.16-3.52L89.472 281.984c-12.16-6.912-17.344-22.528-10.432-34.624 6.912-12.16 22.528-17.344 34.688-10.432l403.968 232.32c12.16 6.912 17.28 22.528 10.368 34.688-3.456 8.64-12.16 12.16-22.528 12.16z" p-id="22515"></path><path d="M507.2 516.096a27.072 27.072 0 0 1-22.528-13.888c-6.912-12.16-1.728-27.776 10.432-34.688l417.792-234.048c12.16-6.912 27.776-1.728 34.688 10.368 6.976 12.16 1.728 27.776-10.368 34.688L519.296 512.64c-3.392 3.52-8.64 3.52-12.096 3.52z" p-id="22516"></path><path d="M923.328 281.984a32.128 32.128 0 0 1-12.16-3.456l-414.336-208a28.288 28.288 0 0 1-12.16-34.688c6.912-12.16 22.528-17.344 34.688-12.16l414.336 208c12.16 7.04 17.344 22.592 12.16 34.752-3.456 10.368-12.16 15.552-22.528 15.552z" p-id="22517"></path><path d="M108.48 280.32c-8.704 0-19.072-5.248-22.592-13.888-6.912-12.16-1.728-27.776 12.16-34.688L496.768 25.408c12.16-6.912 27.776-1.728 34.752 12.16 6.912 13.824 1.728 27.712-12.16 34.688L120.64 276.8a25.088 25.088 0 0 1-12.16 3.456z m400.448 719.872c-5.12 0-8.64-1.728-13.824-3.52l-400.512-244.48c-12.16-6.912-15.616-24.256-8.704-36.352 6.976-12.16 24.32-15.616 36.48-8.704l400.448 244.48c12.16 6.912 15.616 24.32 8.704 36.416a25.28 25.28 0 0 1-22.592 12.16z m437.824-263.808c-2.432 4.736-5.568 7.04-9.6 10.944l-404.16 249.344c-11.84 7.808-28.8 2.944-36.352-8.896-7.552-11.84-2.56-29.056 9.344-36.864l404.16-249.344c11.84-7.744 28.8-2.944 36.352 8.96a25.792 25.792 0 0 1 0.256 25.856z" p-id="22518"></path><path d="M515.84 1001.536a26.688 26.688 0 0 1-25.984-26.048V495.232c0-13.824 12.16-25.984 26.048-25.984 13.824 0 25.984 12.16 25.984 25.984v480.256c0 13.888-12.16 26.048-25.984 26.048zM101.568 751.872a26.688 26.688 0 0 1-25.984-26.048v-452.48c0-13.888 12.16-25.984 25.984-25.984 13.888 0 26.048 12.16 26.048 25.984v452.48c0 13.888-12.16 26.048-26.048 26.048z m823.04-3.648a26.688 26.688 0 0 1-25.92-25.984v-452.48c0-13.888 12.16-26.048 25.984-26.048 13.888 0 25.984 12.16 25.984 26.048v452.48c0 13.888-12.16 25.984-25.984 25.984z m-507.52-131.584c-5.12 0-8.64-1.728-13.824-3.456L209.024 500.48a25.472 25.472 0 0 1-8.704-36.48 25.472 25.472 0 0 1 36.48-8.64l194.112 112.704c12.16 6.976 17.344 22.528 8.704 36.48a25.28 25.28 0 0 1-22.528 12.096z" p-id="22519"></path></svg>